<!DOCTYPE svg PUBLIC "-//W3C//DTD SVG 1.1//EN" "http://www.w3.org/Graphics/SVG/1.1/DTD/svg11.dtd">
<!-- Uploaded to: SVG Repo, www.svgrepo.com, Transformed by: SVG Repo Mixer Tools -->
<svg width="800px" height="800px" viewBox="0 0 24 24" fill="none" xmlns="http://www.w3.org/2000/svg">

<g id="SVGRepo_bgCarrier" stroke-width="0"/>

<g id="SVGRepo_tracerCarrier" stroke-linecap="round" stroke-linejoin="round"/>

<g id="SVGRepo_iconCarrier"> <path d="M6 4C6 5.10457 5.10457 6 4 6C2.89543 6 2 5.10457 2 4C2 2.89543 2.89543 2 4 2C5.10457 2 6 2.89543 6 4Z" stroke="#ffffff" stroke-width="1.5"/> <path d="M6 20C6 21.1046 5.10457 22 4 22C2.89543 22 2 21.1046 2 20C2 18.8954 2.89543 18 4 18C5.10457 18 6 18.8954 6 20Z" stroke="#ffffff" stroke-width="1.5"/> <path d="M14 20C14 21.1046 13.1046 22 12 22C10.8954 22 10 21.1046 10 20C10 18.8954 10.8954 18 12 18C13.1046 18 14 18.8954 14 20Z" stroke="#ffffff" stroke-width="1.5"/> <path d="M14 4C14 5.10457 13.1046 6 12 6C10.8954 6 10 5.10457 10 4C10 2.89543 10.8954 2 12 2C13.1046 2 14 2.89543 14 4Z" stroke="#ffffff" stroke-width="1.5"/> <path d="M22 4C22 5.10457 21.1046 6 20 6C18.8954 6 18 5.10457 18 4C18 2.89543 18.8954 2 20 2C21.1046 2 22 2.89543 22 4Z" stroke="#ffffff" stroke-width="1.5"/> <path d="M12 6V13M12 18V16" stroke="#ffffff" stroke-width="1.5" stroke-linecap="round"/> <path d="M4 18V11M4 6V8" stroke="#ffffff" stroke-width="1.5" stroke-linecap="round"/> <path d="M20 6V8C20 9.88562 20 10.8284 19.4142 11.4142C18.8284 12 17.8856 12 16 12H10M4 12H6" stroke="#ffffff" stroke-width="1.5" stroke-linecap="round"/></g>

</svg>
