<svg id="&#x421;&#x43B;&#x43E;&#x439;_1" enable-background="new 0 0 12 12" viewBox="0 0 12 12"
     xmlns="http://www.w3.org/2000/svg"><path
  d="m8.5.125h-5c-.7578125 0-1.375.6166992-1.375 1.375v9c0 .7583008.6171875 1.375 1.375 1.375h5c.7578125 0 1.375-.6166992 1.375-1.375v-9c0-.7583008-.6171875-1.375-1.375-1.375zm-1.875.75v10.25h-1.25v-10.25zm-3.75 9.625v-1.3930664l.4570313.2285156c.0537109.0268555.1113281.0395508.1679687.0395508.1376953 0 .2695313-.0756836.3349609-.2075195.0927734-.1850586.0175781-.4101563-.1669922-.5029297l-.7929687-.3964844v-1.1611328l.4570313.2285156c.0537109.0268555.1113281.0395508.1679687.0395508.1376953 0 .2695313-.0756836.3349609-.2075195.0927734-.1850586.0175781-.4101563-.1669922-.5029297l-.7929687-.3964844v-1.1611328l.4570313.2285156c.0537109.0268555.1113281.0395508.1679687.0395508.1376953 0 .2695313-.0756836.3349609-.2075195.0927734-.1850586.0175781-.4101563-.1669922-.5029297l-.7929687-.3964844v-1.1611328l.4570313.2285156c.0537109.0268555.1113281.0395508.1679687.0395508.1376953 0 .2695313-.0756836.3349609-.2075195.0927734-.1850586.0175781-.4101563-.1669922-.5029297l-.7929687-.3964844v-.7680664c0-.3447266.2802734-.625.625-.625h1.125v10.25h-1.125c-.3447266 0-.625-.2802734-.625-.625zm5.625.625h-1.125v-10.25h1.125c.3447266 0 .625.2802734.625.625v.7680664l-.7929687.3964844c-.1845704.0927734-.2597657.3178711-.1669922.5029297.0654297.1318359.1972656.2075195.3349609.2075195.0566406 0 .1142578-.0126953.1679688-.0395508l.4570312-.2285156v1.1611328l-.7929687.3964844c-.1845704.0927734-.2597657.3178711-.1669922.5029297.0654297.1318359.1972656.2075195.3349609.2075195.0566406 0 .1142578-.0126953.1679688-.0395508l.4570312-.2285156v1.1611328l-.7929687.3964844c-.1845704.0927734-.2597657.3178711-.1669922.5029297.0654297.1318359.1972656.2075195.3349609.2075195.0566406 0 .1142578-.0126953.1679688-.0395508l.4570312-.2285156v1.1611328l-.7929687.3964844c-.1845704.0927734-.2597657.3178711-.1669922.5029297.0654297.1318359.1972656.2075195.3349609.2075195.0566406 0 .1142578-.0126953.1679688-.0395508l.4570312-.2285156v1.3930664c0 .3447266-.2802734.625-.625.625z" fill="rgb(255,255,255)"/></svg>
